M48
;DRILL file {KiCad (2015-08-30 BZR 6134, Git 4e94d52)-product} date 2015-09-02 06:32:28
;FORMAT={-:-/ absolute / metric / decimal}
FMAT,2
METRIC,TZ
T1C0.300
T2C0.500
T3C3.200
%
G90
G05
M71
T1
X100.9Y-128.7
X100.9Y-130.3
X100.9Y-132.2
X100.9Y-134.2
X100.9Y-136.2
X100.9Y-138.2
X100.9Y-140.2
X100.9Y-142.2
X100.9Y-144.2
X103.1Y-141.7
X104.45Y-133.8
X104.6Y-128.7
X105.9Y-129.85
X105.9Y-131.35
X106.Y-149.1
X106.85Y-136.7
X107.6Y-114.8
X107.6Y-116.1
X107.6Y-117.5
X107.6Y-118.9
X108.Y-142.8
X108.Y-149.1
X108.Y-141.55
X109.2Y-138.5
X110.Y-149.1
X110.6Y-144.1
X111.54Y-104.15
X112.Y-149.1
X112.1Y-141.
X113.268Y-103.023
X113.3Y-144.1
X113.35Y-100.911
X114.Y-149.1
X114.4Y-141.023
X114.85Y-104.15
X116.Y-149.1
X116.3Y-144.1
X117.25Y-105.1
X117.25Y-107.95
X118.Y-149.1
X118.1Y-140.85
X118.15Y-143.25
X118.276Y-109.004
X118.5Y-103.7
X119.3Y-144.9
X120.Y-149.1
X120.257Y-127.941
X120.257Y-128.941
X120.257Y-129.941
X120.257Y-130.941
X120.257Y-131.941
X120.257Y-132.941
X120.3Y-146.9
X121.25Y-145.6
X121.257Y-127.941
X121.257Y-128.941
X121.257Y-129.941
X121.257Y-130.941
X121.257Y-131.941
X121.257Y-132.941
X122.257Y-127.941
X122.257Y-128.941
X122.257Y-129.941
X122.257Y-130.941
X122.257Y-131.941
X122.257Y-132.941
X122.557Y-114.441
X122.557Y-115.441
X122.557Y-116.441
X122.557Y-117.441
X122.557Y-118.441
X122.557Y-119.441
X122.661Y-100.891
X122.7Y-103.45
X123.257Y-127.941
X123.257Y-128.941
X123.257Y-129.941
X123.257Y-130.941
X123.257Y-131.941
X123.257Y-132.941
X123.557Y-114.441
X123.557Y-115.441
X123.557Y-116.441
X123.557Y-117.441
X123.557Y-118.441
X123.557Y-119.441
X123.8Y-144.45
X124.257Y-127.941
X124.257Y-128.941
X124.257Y-129.941
X124.257Y-130.941
X124.257Y-131.941
X124.257Y-132.941
X124.557Y-114.441
X124.557Y-115.441
X124.557Y-116.441
X124.557Y-117.441
X124.557Y-118.441
X124.557Y-119.441
X124.7Y-100.9
X124.7Y-103.45
X124.985Y-108.536
X125.257Y-127.941
X125.257Y-128.941
X125.257Y-129.941
X125.257Y-130.941
X125.257Y-131.941
X125.257Y-132.941
X125.557Y-114.441
X125.557Y-115.441
X125.557Y-116.441
X125.557Y-117.441
X125.557Y-118.441
X125.557Y-119.441
X126.557Y-114.441
X126.557Y-115.441
X126.557Y-116.441
X126.557Y-117.441
X126.557Y-118.441
X126.557Y-119.441
X126.7Y-100.9
X127.557Y-114.441
X127.557Y-115.441
X127.557Y-116.441
X127.557Y-117.441
X127.557Y-118.441
X127.557Y-119.441
X127.7Y-103.45
X127.95Y-108.65
X128.7Y-100.9
X129.7Y-146.85
X129.7Y-149.1
X130.6Y-108.8
X130.7Y-100.9
X130.9Y-103.45
X130.95Y-105.7
X131.2Y-143.3
X131.4Y-149.1
X131.9Y-141.1
X132.35Y-103.3
X132.4Y-100.9
X133.Y-143.2
X133.3Y-149.1
X133.9Y-144.8
X134.25Y-106.3
X135.1Y-149.1
X136.5Y-104.2
X136.6Y-142.4
X136.7Y-102.4
X136.9Y-149.1
X138.6Y-149.1
X138.9Y-142.4
X140.9Y-133.6
X140.9Y-140.05
X140.95Y-137.5
X141.263Y-118.904
X141.3Y-114.6
X141.328Y-115.992
X141.328Y-117.486
X142.4Y-149.
X144.Y-105.75
X144.Y-149.
X144.1Y-133.5
X144.3Y-130.6
X144.65Y-128.75
X145.8Y-128.6
X149.1Y-128.7
X149.1Y-130.6
X149.1Y-132.4
X149.1Y-134.3
X149.1Y-136.3
X149.1Y-138.4
X149.1Y-140.4
X149.1Y-142.3
X149.1Y-144.2
T2
X118.281Y-127.104
X118.281Y-128.104
X118.281Y-129.104
X118.281Y-130.104
X118.281Y-131.104
X118.281Y-132.104
X118.281Y-133.104
X118.281Y-134.104
X118.281Y-135.104
X119.281Y-126.104
X119.8Y-123.2
X119.9Y-124.2
X120.053Y-111.172
X120.281Y-126.104
X120.951Y-111.378
X120.974Y-112.427
X121.1Y-123.1
X121.1Y-124.2
X121.1Y-110.5
X121.281Y-126.104
X121.939Y-111.37
X121.974Y-112.427
X122.12Y-136.33
X122.12Y-137.33
X122.12Y-138.33
X122.12Y-139.33
X122.281Y-126.104
X122.974Y-112.427
X123.228Y-136.32
X123.228Y-137.32
X123.228Y-138.32
X123.228Y-139.32
X123.281Y-126.104
X123.974Y-112.427
X124.281Y-126.104
X124.37Y-122.88
X124.37Y-123.88
X124.37Y-124.88
X124.974Y-112.427
X125.281Y-126.104
X125.478Y-122.87
X125.478Y-123.87
X125.478Y-124.87
X125.974Y-112.427
X126.281Y-126.104
X126.974Y-112.427
X127.281Y-126.104
X127.281Y-127.104
X127.281Y-128.104
X127.281Y-129.104
X127.281Y-130.104
X127.281Y-131.104
X127.281Y-132.104
X127.281Y-133.104
X127.281Y-134.104
X127.281Y-135.104
X127.974Y-110.416
X127.974Y-111.414
X127.974Y-112.427
X128.9Y-123.2
X128.974Y-112.427
X129.Y-124.4
X130.2Y-123.1
X130.3Y-124.4
X137.564Y-137.458
X137.588Y-134.939
X137.588Y-136.196
X139.199Y-134.949
X139.251Y-137.499
T3
X103.3Y-103.3
X103.3Y-146.7
X146.7Y-103.3
X146.7Y-146.7
T0
M30
