G04 #@! TF.FileFunction,Soldermask,Top*
%FSLAX45Y45*%
G04 Gerber Fmt 4.5, Leading zero omitted, Abs format (unit mm)*
G04 Created by KiCad (PCBNEW (2015-08-30 BZR 6134, Git 4e94d52)-product) date 2015-09-02 06:32:25*
%MOMM*%
G01*
G04 APERTURE LIST*
%ADD10C,0.100000*%
%ADD11C,1.000000*%
%ADD12C,9.500000*%
G04 APERTURE END LIST*
D10*
D11*
X10200000Y-10050000D02*
X10600000Y-10050000D01*
X10050000Y-10200000D02*
X10200000Y-10050000D01*
X10050000Y-10550000D02*
X10050000Y-10200000D01*
X10050000Y-14800000D02*
X10050000Y-12850000D01*
X10200000Y-14950000D02*
X10050000Y-14800000D01*
X12000000Y-14950000D02*
X10200000Y-14950000D01*
X13850000Y-14950000D02*
X13000000Y-14950000D01*
X14800000Y-14950000D02*
X14250000Y-14950000D01*
X14950000Y-14800000D02*
X14800000Y-14950000D01*
X14950000Y-12850000D02*
X14950000Y-14800000D01*
X14950000Y-10200000D02*
X14950000Y-10550000D01*
X14800000Y-10050000D02*
X14950000Y-10200000D01*
X14400000Y-10050000D02*
X14800000Y-10050000D01*
X12300000Y-10050000D02*
X13700000Y-10050000D01*
D12*
X14525000Y-11700000D02*
G75*
G03X14525000Y-11700000I-475000J0D01*
G01*
X11425000Y-11700000D02*
G75*
G03X11425000Y-11700000I-475000J0D01*
G01*
D10*
G36*
X12930000Y-14965000D02*
X12800000Y-14965000D01*
X12800000Y-14855000D01*
X12930000Y-14855000D01*
X12930000Y-14965000D01*
X12930000Y-14965000D01*
G37*
G36*
X12200000Y-14965000D02*
X12070000Y-14965000D01*
X12070000Y-14855000D01*
X12200000Y-14855000D01*
X12200000Y-14965000D01*
X12200000Y-14965000D01*
G37*
G36*
X14175000Y-14955000D02*
X13945000Y-14955000D01*
X13945000Y-14725000D01*
X14175000Y-14725000D01*
X14175000Y-14955000D01*
X14175000Y-14955000D01*
G37*
G36*
X10353633Y-14445149D02*
X10396856Y-14454022D01*
X10437534Y-14471121D01*
X10474115Y-14495795D01*
X10505207Y-14527105D01*
X10529625Y-14563857D01*
X10546439Y-14604653D01*
X10555000Y-14647886D01*
X10555000Y-14647887D01*
X10555010Y-14647938D01*
X10554306Y-14698336D01*
X10554295Y-14698386D01*
X10554295Y-14698388D01*
X10544531Y-14741365D01*
X10526583Y-14781675D01*
X10501148Y-14817731D01*
X10469195Y-14848160D01*
X10431938Y-14871804D01*
X10390800Y-14887760D01*
X10347345Y-14895423D01*
X10303230Y-14894499D01*
X10260135Y-14885023D01*
X10219700Y-14867358D01*
X10183467Y-14842175D01*
X10152816Y-14810435D01*
X10128913Y-14773344D01*
X10112669Y-14732319D01*
X10104704Y-14688919D01*
X10105320Y-14644798D01*
X10114494Y-14601637D01*
X10131877Y-14561081D01*
X10156806Y-14524673D01*
X10188332Y-14493800D01*
X10225254Y-14469639D01*
X10266166Y-14453110D01*
X10309509Y-14444841D01*
X10353633Y-14445149D01*
X10353633Y-14445149D01*
G37*
G36*
X14693633Y-14445149D02*
X14736856Y-14454022D01*
X14777534Y-14471121D01*
X14814115Y-14495795D01*
X14845206Y-14527105D01*
X14869625Y-14563857D01*
X14886439Y-14604653D01*
X14895000Y-14647886D01*
X14895000Y-14647887D01*
X14895010Y-14647938D01*
X14894306Y-14698336D01*
X14894294Y-14698386D01*
X14894294Y-14698388D01*
X14884530Y-14741365D01*
X14866583Y-14781675D01*
X14841148Y-14817731D01*
X14809194Y-14848160D01*
X14771938Y-14871804D01*
X14730800Y-14887760D01*
X14687345Y-14895423D01*
X14643230Y-14894499D01*
X14600135Y-14885023D01*
X14559700Y-14867358D01*
X14523467Y-14842175D01*
X14492816Y-14810435D01*
X14468912Y-14773344D01*
X14452669Y-14732319D01*
X14444704Y-14688919D01*
X14445320Y-14644798D01*
X14454494Y-14601637D01*
X14471877Y-14561081D01*
X14496806Y-14524673D01*
X14528332Y-14493800D01*
X14565254Y-14469639D01*
X14606165Y-14453110D01*
X14649509Y-14444841D01*
X14693633Y-14445149D01*
X14693633Y-14445149D01*
G37*
G36*
X12356302Y-14740040D02*
X12367828Y-14742406D01*
X12378676Y-14746965D01*
X12388431Y-14753545D01*
X12396722Y-14761894D01*
X12403233Y-14771695D01*
X12407717Y-14782574D01*
X12409993Y-14794065D01*
X12409993Y-14794066D01*
X12410003Y-14794117D01*
X12409815Y-14807556D01*
X12409803Y-14807606D01*
X12409803Y-14807608D01*
X12407208Y-14819031D01*
X12402422Y-14829780D01*
X12395640Y-14839395D01*
X12387118Y-14847510D01*
X12377184Y-14853815D01*
X12366214Y-14858069D01*
X12354625Y-14860113D01*
X12342861Y-14859866D01*
X12331369Y-14857340D01*
X12320586Y-14852629D01*
X12310925Y-14845914D01*
X12302750Y-14837449D01*
X12296376Y-14827559D01*
X12292045Y-14816619D01*
X12289921Y-14805045D01*
X12290085Y-14793279D01*
X12292531Y-14781770D01*
X12297167Y-14770955D01*
X12303815Y-14761246D01*
X12312222Y-14753013D01*
X12322068Y-14746570D01*
X12332978Y-14742162D01*
X12344535Y-14739957D01*
X12356302Y-14740040D01*
X12356302Y-14740040D01*
G37*
G36*
X12656302Y-14740040D02*
X12667828Y-14742406D01*
X12678676Y-14746965D01*
X12688431Y-14753545D01*
X12696722Y-14761894D01*
X12703233Y-14771695D01*
X12707717Y-14782574D01*
X12709993Y-14794065D01*
X12709993Y-14794066D01*
X12710003Y-14794117D01*
X12709815Y-14807556D01*
X12709803Y-14807606D01*
X12709803Y-14807608D01*
X12707208Y-14819031D01*
X12702422Y-14829780D01*
X12695640Y-14839395D01*
X12687118Y-14847510D01*
X12677184Y-14853815D01*
X12666214Y-14858069D01*
X12654625Y-14860113D01*
X12642861Y-14859866D01*
X12631369Y-14857340D01*
X12620586Y-14852629D01*
X12610925Y-14845914D01*
X12602750Y-14837449D01*
X12596376Y-14827559D01*
X12592045Y-14816619D01*
X12589921Y-14805045D01*
X12590085Y-14793279D01*
X12592531Y-14781770D01*
X12597167Y-14770955D01*
X12603815Y-14761246D01*
X12612222Y-14753013D01*
X12622068Y-14746570D01*
X12632978Y-14742162D01*
X12644535Y-14739957D01*
X12656302Y-14740040D01*
X12656302Y-14740040D01*
G37*
G36*
X12930000Y-14745000D02*
X12800000Y-14745000D01*
X12800000Y-14635000D01*
X12930000Y-14635000D01*
X12930000Y-14745000D01*
X12930000Y-14745000D01*
G37*
G36*
X12200000Y-14745000D02*
X12070000Y-14745000D01*
X12070000Y-14635000D01*
X12200000Y-14635000D01*
X12200000Y-14745000D01*
X12200000Y-14745000D01*
G37*
G36*
X13335000Y-14740000D02*
X13105000Y-14740000D01*
X13105000Y-14510000D01*
X13335000Y-14510000D01*
X13335000Y-14740000D01*
X13335000Y-14740000D01*
G37*
G36*
X12625000Y-14715000D02*
X12525000Y-14715000D01*
X12525000Y-14535000D01*
X12625000Y-14535000D01*
X12625000Y-14715000D01*
X12625000Y-14715000D01*
G37*
G36*
X12775000Y-14715000D02*
X12675000Y-14715000D01*
X12675000Y-14535000D01*
X12775000Y-14535000D01*
X12775000Y-14715000D01*
X12775000Y-14715000D01*
G37*
G36*
X12325000Y-14715000D02*
X12225000Y-14715000D01*
X12225000Y-14535000D01*
X12325000Y-14535000D01*
X12325000Y-14715000D01*
X12325000Y-14715000D01*
G37*
G36*
X14175000Y-14525000D02*
X13945000Y-14525000D01*
X13945000Y-14295000D01*
X14175000Y-14295000D01*
X14175000Y-14525000D01*
X14175000Y-14525000D01*
G37*
G36*
X10876827Y-14345043D02*
X10889314Y-14347606D01*
X10901065Y-14352546D01*
X10911633Y-14359674D01*
X10920616Y-14368719D01*
X10927670Y-14379336D01*
X10932527Y-14391122D01*
X10934993Y-14403574D01*
X10934993Y-14403576D01*
X10935003Y-14403626D01*
X10934800Y-14418186D01*
X10934788Y-14418237D01*
X10934788Y-14418238D01*
X10931976Y-14430616D01*
X10926791Y-14442261D01*
X10919443Y-14452678D01*
X10910212Y-14461469D01*
X10899449Y-14468299D01*
X10887565Y-14472909D01*
X10875011Y-14475122D01*
X10862266Y-14474855D01*
X10849817Y-14472118D01*
X10838135Y-14467015D01*
X10827668Y-14459740D01*
X10818813Y-14450570D01*
X10811908Y-14439855D01*
X10807215Y-14428003D01*
X10804914Y-14415465D01*
X10805092Y-14402719D01*
X10807743Y-14390251D01*
X10812764Y-14378534D01*
X10819966Y-14368017D01*
X10829074Y-14359097D01*
X10839740Y-14352118D01*
X10851559Y-14347343D01*
X10864081Y-14344954D01*
X10876827Y-14345043D01*
X10876827Y-14345043D01*
G37*
G36*
X12410000Y-14365000D02*
X12270000Y-14365000D01*
X12270000Y-14235000D01*
X12410000Y-14235000D01*
X12410000Y-14365000D01*
X12410000Y-14365000D01*
G37*
G36*
X12580000Y-14365000D02*
X12440000Y-14365000D01*
X12440000Y-14235000D01*
X12580000Y-14235000D01*
X12580000Y-14365000D01*
X12580000Y-14365000D01*
G37*
G36*
X10680000Y-14240000D02*
X10540000Y-14240000D01*
X10540000Y-14110000D01*
X10680000Y-14110000D01*
X10680000Y-14240000D01*
X10680000Y-14240000D01*
G37*
G36*
X10510000Y-14240000D02*
X10370000Y-14240000D01*
X10370000Y-14110000D01*
X10510000Y-14110000D01*
X10510000Y-14240000D01*
X10510000Y-14240000D01*
G37*
G36*
X13460000Y-14165000D02*
X13340000Y-14165000D01*
X13340000Y-13885000D01*
X13460000Y-13885000D01*
X13460000Y-14165000D01*
X13460000Y-14165000D01*
G37*
G36*
X12950000Y-14165000D02*
X12830000Y-14165000D01*
X12830000Y-13885000D01*
X12950000Y-13885000D01*
X12950000Y-14165000D01*
X12950000Y-14165000D01*
G37*
G36*
X13880000Y-14165000D02*
X13740000Y-14165000D01*
X13740000Y-14035000D01*
X13880000Y-14035000D01*
X13880000Y-14165000D01*
X13880000Y-14165000D01*
G37*
G36*
X13710000Y-14165000D02*
X13570000Y-14165000D01*
X13570000Y-14035000D01*
X13710000Y-14035000D01*
X13710000Y-14165000D01*
X13710000Y-14165000D01*
G37*
G36*
X12580000Y-14140000D02*
X12440000Y-14140000D01*
X12440000Y-14010000D01*
X12580000Y-14010000D01*
X12580000Y-14140000D01*
X12580000Y-14140000D01*
G37*
G36*
X12410000Y-14140000D02*
X12270000Y-14140000D01*
X12270000Y-14010000D01*
X12410000Y-14010000D01*
X12410000Y-14140000D01*
X12410000Y-14140000D01*
G37*
G36*
X10370000Y-13977500D02*
X10332468Y-13977500D01*
X10330379Y-13977797D01*
X10328455Y-13978664D01*
X10326849Y-13980033D01*
X10325688Y-13981795D01*
X10325063Y-13983811D01*
X10325025Y-13985921D01*
X10325577Y-13987959D01*
X10326674Y-13989761D01*
X10328230Y-13991187D01*
X10329562Y-13991914D01*
X10331065Y-13992546D01*
X10341633Y-13999674D01*
X10350616Y-14008719D01*
X10357670Y-14019336D01*
X10362527Y-14031122D01*
X10364993Y-14043574D01*
X10364993Y-14043576D01*
X10365003Y-14043626D01*
X10364800Y-14058186D01*
X10364788Y-14058237D01*
X10364788Y-14058238D01*
X10361976Y-14070616D01*
X10356791Y-14082261D01*
X10349443Y-14092678D01*
X10340212Y-14101469D01*
X10329449Y-14108299D01*
X10317565Y-14112909D01*
X10305011Y-14115122D01*
X10292266Y-14114855D01*
X10279817Y-14112118D01*
X10268135Y-14107015D01*
X10257668Y-14099740D01*
X10248813Y-14090570D01*
X10241908Y-14079855D01*
X10237215Y-14068003D01*
X10234914Y-14055465D01*
X10235092Y-14042719D01*
X10237743Y-14030251D01*
X10242764Y-14018534D01*
X10249966Y-14008017D01*
X10259074Y-13999097D01*
X10269740Y-13992118D01*
X10270146Y-13991954D01*
X10271972Y-13990896D01*
X10273431Y-13989371D01*
X10274407Y-13987500D01*
X10274824Y-13985431D01*
X10274647Y-13983328D01*
X10273892Y-13981357D01*
X10272618Y-13979675D01*
X10270925Y-13978414D01*
X10268948Y-13977675D01*
X10267336Y-13977500D01*
X10235000Y-13977500D01*
X10235000Y-13697500D01*
X10370000Y-13697500D01*
X10370000Y-13977500D01*
X10370000Y-13977500D01*
G37*
G36*
X11642000Y-14115000D02*
X11512000Y-14115000D01*
X11512000Y-13835000D01*
X11642000Y-13835000D01*
X11642000Y-14115000D01*
X11642000Y-14115000D01*
G37*
G36*
X11388000Y-14115000D02*
X11258000Y-14115000D01*
X11258000Y-13835000D01*
X11388000Y-13835000D01*
X11388000Y-14115000D01*
X11388000Y-14115000D01*
G37*
G36*
X10986827Y-13965043D02*
X10999314Y-13967606D01*
X11011065Y-13972546D01*
X11021633Y-13979674D01*
X11030616Y-13988719D01*
X11037670Y-13999336D01*
X11042527Y-14011122D01*
X11044993Y-14023574D01*
X11044993Y-14023576D01*
X11045003Y-14023626D01*
X11044800Y-14038186D01*
X11044788Y-14038237D01*
X11044788Y-14038238D01*
X11041976Y-14050616D01*
X11036791Y-14062261D01*
X11029443Y-14072678D01*
X11020212Y-14081469D01*
X11009449Y-14088299D01*
X10997565Y-14092909D01*
X10985011Y-14095122D01*
X10972266Y-14094855D01*
X10959817Y-14092118D01*
X10948135Y-14087015D01*
X10937668Y-14079740D01*
X10928813Y-14070570D01*
X10921908Y-14059855D01*
X10917215Y-14048003D01*
X10914914Y-14035465D01*
X10915092Y-14022719D01*
X10917743Y-14010251D01*
X10922764Y-13998534D01*
X10929966Y-13988017D01*
X10939074Y-13979097D01*
X10949740Y-13972118D01*
X10961559Y-13967343D01*
X10974081Y-13964954D01*
X10986827Y-13965043D01*
X10986827Y-13965043D01*
G37*
G36*
X10865000Y-14005000D02*
X10735000Y-14005000D01*
X10735000Y-13865000D01*
X10865000Y-13865000D01*
X10865000Y-14005000D01*
X10865000Y-14005000D01*
G37*
G36*
X10640000Y-13977500D02*
X10505000Y-13977500D01*
X10505000Y-13887500D01*
X10640000Y-13887500D01*
X10640000Y-13977500D01*
X10640000Y-13977500D01*
G37*
G36*
X14115000Y-13942000D02*
X13835000Y-13942000D01*
X13835000Y-13812000D01*
X14115000Y-13812000D01*
X14115000Y-13942000D01*
X14115000Y-13942000D01*
G37*
G36*
X12595000Y-13880000D02*
X12415000Y-13880000D01*
X12415000Y-13600000D01*
X12595000Y-13600000D01*
X12595000Y-13880000D01*
X12595000Y-13880000D01*
G37*
G36*
X12135000Y-13880000D02*
X11955000Y-13880000D01*
X11955000Y-13600000D01*
X12135000Y-13600000D01*
X12135000Y-13880000D01*
X12135000Y-13880000D01*
G37*
G36*
X10865000Y-13835000D02*
X10735000Y-13835000D01*
X10735000Y-13695000D01*
X10865000Y-13695000D01*
X10865000Y-13835000D01*
X10865000Y-13835000D01*
G37*
G36*
X12950000Y-13815000D02*
X12830000Y-13815000D01*
X12830000Y-13535000D01*
X12950000Y-13535000D01*
X12950000Y-13815000D01*
X12950000Y-13815000D01*
G37*
G36*
X13460000Y-13815000D02*
X13340000Y-13815000D01*
X13340000Y-13535000D01*
X13460000Y-13535000D01*
X13460000Y-13815000D01*
X13460000Y-13815000D01*
G37*
G36*
X10640000Y-13787500D02*
X10505000Y-13787500D01*
X10505000Y-13697500D01*
X10640000Y-13697500D01*
X10640000Y-13787500D01*
X10640000Y-13787500D01*
G37*
G36*
X11435000Y-13715000D02*
X11295000Y-13715000D01*
X11295000Y-13585000D01*
X11435000Y-13585000D01*
X11435000Y-13715000D01*
X11435000Y-13715000D01*
G37*
G36*
X11605000Y-13715000D02*
X11465000Y-13715000D01*
X11465000Y-13585000D01*
X11605000Y-13585000D01*
X11605000Y-13715000D01*
X11605000Y-13715000D01*
G37*
G36*
X13766827Y-13555043D02*
X13779314Y-13557606D01*
X13791065Y-13562546D01*
X13801633Y-13569674D01*
X13810616Y-13578719D01*
X13817669Y-13589336D01*
X13820566Y-13596364D01*
X13821637Y-13598182D01*
X13823172Y-13599631D01*
X13825049Y-13600594D01*
X13827121Y-13600996D01*
X13829223Y-13600805D01*
X13831188Y-13600036D01*
X13832862Y-13598750D01*
X13834110Y-13597049D01*
X13834836Y-13595067D01*
X13835000Y-13593506D01*
X13835000Y-13558000D01*
X14115000Y-13558000D01*
X14115000Y-13688000D01*
X13835000Y-13688000D01*
X13835000Y-13646648D01*
X13834703Y-13644559D01*
X13833836Y-13642635D01*
X13832467Y-13641028D01*
X13830705Y-13639867D01*
X13828689Y-13639243D01*
X13826578Y-13639205D01*
X13824541Y-13639756D01*
X13822738Y-13640853D01*
X13821313Y-13642409D01*
X13820648Y-13643598D01*
X13816791Y-13652262D01*
X13809443Y-13662678D01*
X13800212Y-13671469D01*
X13789449Y-13678299D01*
X13777565Y-13682909D01*
X13765011Y-13685122D01*
X13752266Y-13684855D01*
X13739817Y-13682118D01*
X13728135Y-13677015D01*
X13717668Y-13669740D01*
X13708813Y-13660570D01*
X13701908Y-13649855D01*
X13697215Y-13638003D01*
X13694914Y-13625465D01*
X13695092Y-13612719D01*
X13697742Y-13600251D01*
X13702764Y-13588534D01*
X13709966Y-13578017D01*
X13719074Y-13569097D01*
X13729739Y-13562118D01*
X13741559Y-13557343D01*
X13754081Y-13554954D01*
X13766827Y-13555043D01*
X13766827Y-13555043D01*
G37*
G36*
X10836827Y-13545043D02*
X10849314Y-13547606D01*
X10861065Y-13552546D01*
X10871633Y-13559674D01*
X10880616Y-13568719D01*
X10887670Y-13579336D01*
X10892527Y-13591122D01*
X10894993Y-13603574D01*
X10894993Y-13603576D01*
X10895003Y-13603626D01*
X10894800Y-13618186D01*
X10894788Y-13618237D01*
X10894788Y-13618238D01*
X10891976Y-13630616D01*
X10886791Y-13642261D01*
X10879443Y-13652678D01*
X10870212Y-13661469D01*
X10859449Y-13668299D01*
X10847565Y-13672909D01*
X10835011Y-13675122D01*
X10822266Y-13674855D01*
X10809817Y-13672118D01*
X10798135Y-13667015D01*
X10787668Y-13659740D01*
X10778813Y-13650570D01*
X10771908Y-13639855D01*
X10767215Y-13628003D01*
X10764914Y-13615465D01*
X10765092Y-13602719D01*
X10767743Y-13590251D01*
X10772764Y-13578534D01*
X10779966Y-13568017D01*
X10789074Y-13559097D01*
X10799740Y-13552118D01*
X10811559Y-13547343D01*
X10824081Y-13544954D01*
X10836827Y-13545043D01*
X10836827Y-13545043D01*
G37*
G36*
X10256827Y-13475043D02*
X10269314Y-13477606D01*
X10281065Y-13482546D01*
X10291633Y-13489674D01*
X10300616Y-13498719D01*
X10307670Y-13509336D01*
X10312527Y-13521122D01*
X10314993Y-13533574D01*
X10314993Y-13533576D01*
X10315003Y-13533626D01*
X10314800Y-13548186D01*
X10314788Y-13548237D01*
X10314788Y-13548238D01*
X10311976Y-13560616D01*
X10306791Y-13572261D01*
X10299443Y-13582678D01*
X10290212Y-13591469D01*
X10279449Y-13598299D01*
X10267565Y-13602909D01*
X10255011Y-13605122D01*
X10242266Y-13604855D01*
X10229817Y-13602118D01*
X10218135Y-13597015D01*
X10207668Y-13589740D01*
X10198813Y-13580570D01*
X10191908Y-13569855D01*
X10187215Y-13558003D01*
X10184914Y-13545465D01*
X10185092Y-13532719D01*
X10187743Y-13520251D01*
X10192764Y-13508534D01*
X10199966Y-13498017D01*
X10209074Y-13489097D01*
X10219740Y-13482118D01*
X10231559Y-13477343D01*
X10244081Y-13474954D01*
X10256827Y-13475043D01*
X10256827Y-13475043D01*
G37*
G36*
X10510000Y-13590000D02*
X10370000Y-13590000D01*
X10370000Y-13460000D01*
X10510000Y-13460000D01*
X10510000Y-13590000D01*
X10510000Y-13590000D01*
G37*
G36*
X10680000Y-13590000D02*
X10540000Y-13590000D01*
X10540000Y-13460000D01*
X10680000Y-13460000D01*
X10680000Y-13590000D01*
X10680000Y-13590000D01*
G37*
G36*
X11605000Y-13515000D02*
X11465000Y-13515000D01*
X11465000Y-13385000D01*
X11605000Y-13385000D01*
X11605000Y-13515000D01*
X11605000Y-13515000D01*
G37*
G36*
X11435000Y-13515000D02*
X11295000Y-13515000D01*
X11295000Y-13385000D01*
X11435000Y-13385000D01*
X11435000Y-13515000D01*
X11435000Y-13515000D01*
G37*
G36*
X14246827Y-13335043D02*
X14259314Y-13337606D01*
X14271065Y-13342546D01*
X14281633Y-13349674D01*
X14290616Y-13358719D01*
X14297669Y-13369336D01*
X14302527Y-13381122D01*
X14304993Y-13393574D01*
X14304993Y-13393576D01*
X14305003Y-13393626D01*
X14304799Y-13408186D01*
X14304788Y-13408237D01*
X14304788Y-13408238D01*
X14301976Y-13420616D01*
X14296791Y-13432261D01*
X14289443Y-13442678D01*
X14280212Y-13451469D01*
X14269449Y-13458299D01*
X14257565Y-13462909D01*
X14245011Y-13465122D01*
X14232266Y-13464855D01*
X14219817Y-13462118D01*
X14208135Y-13457015D01*
X14197668Y-13449740D01*
X14188813Y-13440570D01*
X14181908Y-13429855D01*
X14177215Y-13418003D01*
X14174914Y-13405465D01*
X14175092Y-13392719D01*
X14177742Y-13380251D01*
X14182764Y-13368534D01*
X14189966Y-13358017D01*
X14199074Y-13349097D01*
X14209739Y-13342118D01*
X14221559Y-13337343D01*
X14234081Y-13334954D01*
X14246827Y-13335043D01*
X14246827Y-13335043D01*
G37*
G36*
X13460000Y-13465000D02*
X13340000Y-13465000D01*
X13340000Y-13185000D01*
X13460000Y-13185000D01*
X13460000Y-13465000D01*
X13460000Y-13465000D01*
G37*
G36*
X12950000Y-13465000D02*
X12830000Y-13465000D01*
X12830000Y-13185000D01*
X12950000Y-13185000D01*
X12950000Y-13465000D01*
X12950000Y-13465000D01*
G37*
G36*
X12640000Y-13415000D02*
X11910000Y-13415000D01*
X11910000Y-12685000D01*
X12640000Y-12685000D01*
X12640000Y-13415000D01*
X12640000Y-13415000D01*
G37*
G36*
X11265000Y-13297000D02*
X10635000Y-13297000D01*
X10635000Y-12667000D01*
X11265000Y-12667000D01*
X11265000Y-13297000D01*
X11265000Y-13297000D01*
G37*
G36*
X14365000Y-13297000D02*
X13735000Y-13297000D01*
X13735000Y-12667000D01*
X14365000Y-12667000D01*
X14365000Y-13297000D01*
X14365000Y-13297000D01*
G37*
G36*
X13460000Y-13115000D02*
X13340000Y-13115000D01*
X13340000Y-12835000D01*
X13460000Y-12835000D01*
X13460000Y-13115000D01*
X13460000Y-13115000D01*
G37*
G36*
X12950000Y-13115000D02*
X12830000Y-13115000D01*
X12830000Y-12835000D01*
X12950000Y-12835000D01*
X12950000Y-13115000D01*
X12950000Y-13115000D01*
G37*
G36*
X12820000Y-12530000D02*
X12640000Y-12530000D01*
X12640000Y-12250000D01*
X12820000Y-12250000D01*
X12820000Y-12530000D01*
X12820000Y-12530000D01*
G37*
G36*
X12360000Y-12530000D02*
X12180000Y-12530000D01*
X12180000Y-12250000D01*
X12360000Y-12250000D01*
X12360000Y-12530000D01*
X12360000Y-12530000D01*
G37*
G36*
X10988338Y-11335243D02*
X11058456Y-11349636D01*
X11124443Y-11377374D01*
X11183786Y-11417401D01*
X11234224Y-11468193D01*
X11273835Y-11527813D01*
X11301113Y-11593993D01*
X11315006Y-11664158D01*
X11315006Y-11664159D01*
X11315016Y-11664210D01*
X11313874Y-11745968D01*
X11313863Y-11746018D01*
X11313863Y-11746020D01*
X11298016Y-11815769D01*
X11268901Y-11881161D01*
X11227640Y-11939653D01*
X11175804Y-11989016D01*
X11115366Y-12027371D01*
X11048631Y-12053256D01*
X10978138Y-12065685D01*
X10906573Y-12064186D01*
X10836663Y-12048816D01*
X10771070Y-12020159D01*
X10712291Y-11979306D01*
X10662568Y-11927816D01*
X10623792Y-11867648D01*
X10597442Y-11801095D01*
X10584520Y-11730690D01*
X10585519Y-11659117D01*
X10600402Y-11589101D01*
X10628600Y-11523309D01*
X10669041Y-11464247D01*
X10720183Y-11414165D01*
X10780078Y-11374970D01*
X10846447Y-11348156D01*
X10916759Y-11334743D01*
X10988338Y-11335243D01*
X10988338Y-11335243D01*
G37*
G36*
X14088337Y-11335243D02*
X14158455Y-11349636D01*
X14224443Y-11377374D01*
X14283785Y-11417401D01*
X14334224Y-11468193D01*
X14373835Y-11527813D01*
X14401113Y-11593993D01*
X14415006Y-11664158D01*
X14415006Y-11664159D01*
X14415016Y-11664210D01*
X14413874Y-11745968D01*
X14413863Y-11746018D01*
X14413863Y-11746020D01*
X14398016Y-11815769D01*
X14368901Y-11881161D01*
X14327640Y-11939653D01*
X14275804Y-11989016D01*
X14215366Y-12027371D01*
X14148631Y-12053256D01*
X14078138Y-12065685D01*
X14006573Y-12064186D01*
X13936663Y-12048816D01*
X13871070Y-12020159D01*
X13812291Y-11979306D01*
X13762568Y-11927816D01*
X13723792Y-11867648D01*
X13697441Y-11801095D01*
X13684520Y-11730690D01*
X13685519Y-11659117D01*
X13700402Y-11589101D01*
X13728600Y-11523309D01*
X13769041Y-11464247D01*
X13820183Y-11414165D01*
X13880078Y-11374970D01*
X13946447Y-11348156D01*
X14016759Y-11334743D01*
X14088337Y-11335243D01*
X14088337Y-11335243D01*
G37*
G36*
X12865000Y-12065000D02*
X12135000Y-12065000D01*
X12135000Y-11335000D01*
X12865000Y-11335000D01*
X12865000Y-12065000D01*
X12865000Y-12065000D01*
G37*
G36*
X12992000Y-11165000D02*
X12862000Y-11165000D01*
X12862000Y-10885000D01*
X12992000Y-10885000D01*
X12992000Y-11165000D01*
X12992000Y-11165000D01*
G37*
G36*
X12738000Y-11165000D02*
X12608000Y-11165000D01*
X12608000Y-10885000D01*
X12738000Y-10885000D01*
X12738000Y-11165000D01*
X12738000Y-11165000D01*
G37*
G36*
X12535000Y-11080000D02*
X12165000Y-11080000D01*
X12165000Y-10920000D01*
X12535000Y-10920000D01*
X12535000Y-11080000D01*
X12535000Y-11080000D01*
G37*
G36*
X12060000Y-11050000D02*
X11890000Y-11050000D01*
X11890000Y-10855000D01*
X12060000Y-10855000D01*
X12060000Y-11050000D01*
X12060000Y-11050000D01*
G37*
G36*
X12440000Y-10827500D02*
X12160000Y-10827500D01*
X12160000Y-10692500D01*
X12440000Y-10692500D01*
X12440000Y-10827500D01*
X12440000Y-10827500D01*
G37*
G36*
X12060000Y-10745000D02*
X11890000Y-10745000D01*
X11890000Y-10550000D01*
X12060000Y-10550000D01*
X12060000Y-10745000D01*
X12060000Y-10745000D01*
G37*
G36*
X14365000Y-10733000D02*
X13735000Y-10733000D01*
X13735000Y-10103000D01*
X14365000Y-10103000D01*
X14365000Y-10733000D01*
X14365000Y-10733000D01*
G37*
G36*
X11265000Y-10733000D02*
X10635000Y-10733000D01*
X10635000Y-10103000D01*
X11265000Y-10103000D01*
X11265000Y-10733000D01*
X11265000Y-10733000D01*
G37*
G36*
X13615000Y-10580000D02*
X13285000Y-10580000D01*
X13285000Y-10120000D01*
X13615000Y-10120000D01*
X13615000Y-10580000D01*
X13615000Y-10580000D01*
G37*
G36*
X12440000Y-10557500D02*
X12350000Y-10557500D01*
X12350000Y-10422500D01*
X12440000Y-10422500D01*
X12440000Y-10557500D01*
X12440000Y-10557500D01*
G37*
G36*
X12250000Y-10557500D02*
X12160000Y-10557500D01*
X12160000Y-10422500D01*
X12250000Y-10422500D01*
X12250000Y-10557500D01*
X12250000Y-10557500D01*
G37*
G36*
X10353633Y-10105150D02*
X10396856Y-10114022D01*
X10437534Y-10131121D01*
X10474115Y-10155795D01*
X10505207Y-10187105D01*
X10529625Y-10223858D01*
X10546439Y-10264653D01*
X10555000Y-10307886D01*
X10555000Y-10307887D01*
X10555010Y-10307938D01*
X10554306Y-10358336D01*
X10554295Y-10358387D01*
X10554295Y-10358388D01*
X10544531Y-10401365D01*
X10526583Y-10441675D01*
X10501148Y-10477731D01*
X10469195Y-10508160D01*
X10431938Y-10531804D01*
X10390800Y-10547761D01*
X10347345Y-10555423D01*
X10303230Y-10554499D01*
X10260135Y-10545024D01*
X10219700Y-10527358D01*
X10183467Y-10502176D01*
X10152816Y-10470435D01*
X10128913Y-10433345D01*
X10112669Y-10392319D01*
X10104704Y-10348919D01*
X10105320Y-10304798D01*
X10114494Y-10261638D01*
X10131877Y-10221081D01*
X10156806Y-10184673D01*
X10188332Y-10153800D01*
X10225254Y-10129639D01*
X10266166Y-10113110D01*
X10309509Y-10104841D01*
X10353633Y-10105150D01*
X10353633Y-10105150D01*
G37*
G36*
X14693633Y-10105150D02*
X14736856Y-10114022D01*
X14777534Y-10131121D01*
X14814115Y-10155795D01*
X14845206Y-10187105D01*
X14869625Y-10223858D01*
X14886439Y-10264653D01*
X14895000Y-10307886D01*
X14895000Y-10307887D01*
X14895010Y-10307938D01*
X14894306Y-10358336D01*
X14894294Y-10358387D01*
X14894294Y-10358388D01*
X14884530Y-10401365D01*
X14866583Y-10441675D01*
X14841148Y-10477731D01*
X14809194Y-10508160D01*
X14771938Y-10531804D01*
X14730800Y-10547761D01*
X14687345Y-10555423D01*
X14643230Y-10554499D01*
X14600135Y-10545024D01*
X14559700Y-10527358D01*
X14523467Y-10502176D01*
X14492816Y-10470435D01*
X14468912Y-10433345D01*
X14452669Y-10392319D01*
X14444704Y-10348919D01*
X14445320Y-10304798D01*
X14454494Y-10261638D01*
X14471877Y-10221081D01*
X14496806Y-10184673D01*
X14528332Y-10153800D01*
X14565254Y-10129639D01*
X14606165Y-10113110D01*
X14649509Y-10104841D01*
X14693633Y-10105150D01*
X14693633Y-10105150D01*
G37*
G36*
X12075000Y-10465000D02*
X11975000Y-10465000D01*
X11975000Y-10285000D01*
X12075000Y-10285000D01*
X12075000Y-10465000D01*
X12075000Y-10465000D01*
G37*
G36*
X11775000Y-10465000D02*
X11675000Y-10465000D01*
X11675000Y-10285000D01*
X11775000Y-10285000D01*
X11775000Y-10465000D01*
X11775000Y-10465000D01*
G37*
G36*
X11625000Y-10465000D02*
X11525000Y-10465000D01*
X11525000Y-10285000D01*
X11625000Y-10285000D01*
X11625000Y-10465000D01*
X11625000Y-10465000D01*
G37*
G36*
X11500000Y-10365000D02*
X11370000Y-10365000D01*
X11370000Y-10255000D01*
X11500000Y-10255000D01*
X11500000Y-10365000D01*
X11500000Y-10365000D01*
G37*
G36*
X12230000Y-10365000D02*
X12100000Y-10365000D01*
X12100000Y-10255000D01*
X12230000Y-10255000D01*
X12230000Y-10365000D01*
X12230000Y-10365000D01*
G37*
G36*
X11956302Y-10140040D02*
X11967828Y-10142406D01*
X11978676Y-10146965D01*
X11988431Y-10153546D01*
X11996722Y-10161894D01*
X12003233Y-10171695D01*
X12007717Y-10182574D01*
X12009993Y-10194065D01*
X12009993Y-10194066D01*
X12010003Y-10194117D01*
X12009815Y-10207556D01*
X12009803Y-10207607D01*
X12009803Y-10207608D01*
X12007208Y-10219031D01*
X12002422Y-10229780D01*
X11995640Y-10239395D01*
X11987118Y-10247510D01*
X11977184Y-10253815D01*
X11966214Y-10258070D01*
X11954625Y-10260113D01*
X11942861Y-10259867D01*
X11931369Y-10257340D01*
X11920586Y-10252629D01*
X11910925Y-10245914D01*
X11902750Y-10237449D01*
X11896376Y-10227559D01*
X11892045Y-10216619D01*
X11889921Y-10205045D01*
X11890085Y-10193279D01*
X11892531Y-10181770D01*
X11897167Y-10170955D01*
X11903815Y-10161246D01*
X11912222Y-10153013D01*
X11922068Y-10146570D01*
X11932978Y-10142162D01*
X11944535Y-10139957D01*
X11956302Y-10140040D01*
X11956302Y-10140040D01*
G37*
G36*
X11656302Y-10140040D02*
X11667828Y-10142406D01*
X11678676Y-10146965D01*
X11688431Y-10153546D01*
X11696722Y-10161894D01*
X11703233Y-10171695D01*
X11707717Y-10182574D01*
X11709993Y-10194065D01*
X11709993Y-10194066D01*
X11710003Y-10194117D01*
X11709815Y-10207556D01*
X11709803Y-10207607D01*
X11709803Y-10207608D01*
X11707208Y-10219031D01*
X11702422Y-10229780D01*
X11695640Y-10239395D01*
X11687118Y-10247510D01*
X11677184Y-10253815D01*
X11666214Y-10258070D01*
X11654625Y-10260113D01*
X11642861Y-10259867D01*
X11631369Y-10257340D01*
X11620586Y-10252629D01*
X11610925Y-10245914D01*
X11602750Y-10237449D01*
X11596376Y-10227559D01*
X11592045Y-10216619D01*
X11589921Y-10205045D01*
X11590085Y-10193279D01*
X11592531Y-10181770D01*
X11597167Y-10170955D01*
X11603815Y-10161246D01*
X11612222Y-10153013D01*
X11622068Y-10146570D01*
X11632978Y-10142162D01*
X11644535Y-10139957D01*
X11656302Y-10140040D01*
X11656302Y-10140040D01*
G37*
G36*
X11500000Y-10145000D02*
X11370000Y-10145000D01*
X11370000Y-10035000D01*
X11500000Y-10035000D01*
X11500000Y-10145000D01*
X11500000Y-10145000D01*
G37*
G36*
X12230000Y-10145000D02*
X12100000Y-10145000D01*
X12100000Y-10035000D01*
X12230000Y-10035000D01*
X12230000Y-10145000D01*
X12230000Y-10145000D01*
G37*
M02*
